<svg width="24" height="24" viewBox="0 0 24 24" fill="none" xmlns="http://www.w3.org/2000/svg">
<g clip-path="url(#clip0_70_6177)">
<path d="M23.9885 12.2245C23.9885 11.2413 23.9069 10.5237 23.7301 9.77963H12.239V14.2176H18.984C18.8481 15.3205 18.1138 16.9815 16.4819 18.0976L16.459 18.2461L20.0923 20.9963L20.344 21.0209C22.6558 18.9347 23.9885 15.8653 23.9885 12.2245Z" fill="#4285F4"/>
<path d="M12.239 23.9176C15.5435 23.9176 18.3177 22.8545 20.344 21.0209L16.4819 18.0976C15.4484 18.8018 14.0612 19.2934 12.239 19.2934C9.00248 19.2934 6.25551 17.2074 5.27629 14.324L5.13276 14.3359L1.35483 17.1927L1.30542 17.3269C3.31804 21.2334 7.45214 23.9176 12.239 23.9176Z" fill="#34A853"/>
<path d="M5.27634 14.324C5.01797 13.5799 4.86844 12.7826 4.86844 11.9588C4.86844 11.1349 5.01797 10.3377 5.26275 9.59359L5.25591 9.43511L1.43062 6.53239L1.30547 6.59056C0.475969 8.21166 0 10.0321 0 11.9588C0 13.8855 0.475969 15.7058 1.30547 17.3269L5.27634 14.324Z" fill="#FBBC05"/>
<path d="M12.239 4.62403C14.5372 4.62403 16.0875 5.59402 16.9714 6.40461L20.4255 3.10928C18.3042 1.1826 15.5435 0 12.239 0C7.45214 0 3.31804 2.68406 1.30542 6.59056L5.2627 9.59359C6.25551 6.7102 9.00248 4.62403 12.239 4.62403Z" fill="#EB4335"/>
</g>
<defs>
<clipPath id="clip0_70_6177">
<rect width="24" height="24" fill="white"/>
</clipPath>
</defs>
</svg>
